<?xml version="1.0" encoding="utf-8"?><svg viewBox="0 0 83 58" xmlns="http://www.w3.org/2000/svg" xmlns:xlink="http://www.w3.org/1999/xlink"><style>:root>svg{display:none}:root>svg:target{display:block}</style><svg viewBox="0 0 27 24" id="arrow-slider" xmlns="http://www.w3.org/2000/svg"><path d="M.94 10.94a1.5 1.5 0 000 2.12l9.545 9.547a1.5 1.5 0 102.122-2.122L4.12 12l8.486-8.485a1.5 1.5 0 10-2.122-2.122L.94 10.94zM27 10.5H2v3h25v-3z"/></svg><svg fill="none" viewBox="0 0 23 50" id="arrow-up" xmlns="http://www.w3.org/2000/svg"><path d="M21.896 1.9L2.879 20.917c-2.246 2.245-2.246 5.92 0 8.166L21.896 48.1" stroke="#fff" stroke-width="2" stroke-miterlimit="10" stroke-linecap="round" stroke-linejoin="round"/></svg><svg fill="none" viewBox="0 0 5 5" id="ellipse" xmlns="http://www.w3.org/2000/svg"><circle cx="2.5" cy="2.5" r="2.5" fill="#D3B47F"/></svg><svg fill="none" viewBox="0 0 22 22" id="icon-calling" xmlns="http://www.w3.org/2000/svg"><path d="M20.97 17.33c0 .36-.08.73-.25 1.09-.17.36-.39.7-.68 1.02-.49.54-1.03.93-1.64 1.18-.6.25-1.25.38-1.95.38-1.02 0-2.11-.24-3.26-.73s-2.3-1.15-3.44-1.98a28.75 28.75 0 01-3.28-2.8 28.414 28.414 0 01-2.79-3.27c-.82-1.14-1.48-2.28-1.96-3.41C1.24 7.67 1 6.58 1 5.54c0-.68.12-1.33.36-1.93.24-.61.62-1.17 1.15-1.67C3.15 1.31 3.85 1 4.59 1c.28 0 .56.06.81.18.26.12.49.3.67.56l2.32 3.27c.18.25.31.48.4.7.09.21.14.42.14.61 0 .24-.07.48-.21.71-.13.23-.32.47-.56.71l-.76.79c-.11.11-.16.24-.16.4 0 .08.01.15.03.23.03.08.06.14.08.2.18.33.49.76.93 1.28.45.52.93 1.05 1.45 1.58.54.53 1.06 1.02 1.59 1.47.52.44.95.74 1.29.92.05.02.11.05.18.08.08.03.16.04.25.04.17 0 .3-.06.41-.17l.76-.75c.25-.25.49-.44.72-.56.23-.14.46-.21.71-.21.19 0 .39.04.61.13.22.09.45.22.7.39l3.31 2.35c.26.18.44.39.55.64.1.25.16.5.16.78z" stroke="#fff" stroke-width="1.5" stroke-miterlimit="10"/><path d="M17.5 8c0-.6-.47-1.52-1.17-2.27-.64-.69-1.49-1.23-2.33-1.23M21 8c0-3.87-3.13-7-7-7" stroke="#fff" stroke-width="1.5" stroke-linecap="round" stroke-linejoin="round"/></svg><svg fill="none" viewBox="0 0 22 22" id="icon-clock" xmlns="http://www.w3.org/2000/svg"><path fill-rule="evenodd" clip-rule="evenodd" d="M11 1.75c-5.106 0-9.25 4.144-9.25 9.25s4.144 9.25 9.25 9.25 9.25-4.144 9.25-9.25S16.106 1.75 11 1.75zM.25 11C.25 5.066 5.066.25 11 .25S21.75 5.066 21.75 11 16.934 21.75 11 21.75.25 16.934.25 11z" fill="#fff"/><path fill-rule="evenodd" clip-rule="evenodd" d="M10.63 5.76a.75.75 0 01.75.75v4.1c0 .154.059.376.189.605.13.228.292.392.423.47l.002.001 3.1 1.85a.75.75 0 11-.768 1.288l-3.098-1.849h-.001c-.409-.243-.737-.624-.961-1.017-.225-.394-.386-.872-.386-1.348v-4.1a.75.75 0 01.75-.75z" fill="#fff"/></svg><svg fill="none" viewBox="0 0 22 22" id="icon-header-call" xmlns="http://www.w3.org/2000/svg"><path d="M20.97 17.33c0 .36-.08.73-.25 1.09-.17.36-.39.7-.68 1.02-.49.54-1.03.93-1.64 1.18-.6.25-1.25.38-1.95.38-1.02 0-2.11-.24-3.26-.73s-2.3-1.15-3.44-1.98a28.75 28.75 0 01-3.28-2.8 28.414 28.414 0 01-2.79-3.27c-.82-1.14-1.48-2.28-1.96-3.41C1.24 7.67 1 6.58 1 5.54c0-.68.12-1.33.36-1.93.24-.61.62-1.17 1.15-1.67C3.15 1.31 3.85 1 4.59 1c.28 0 .56.06.81.18.26.12.49.3.67.56l2.32 3.27c.18.25.31.48.4.7.09.21.14.42.14.61 0 .24-.07.48-.21.71-.13.23-.32.47-.56.71l-.76.79c-.11.11-.16.24-.16.4 0 .08.01.15.03.23.03.08.06.14.08.2.18.33.49.76.93 1.28.45.52.93 1.05 1.45 1.58.54.53 1.06 1.02 1.59 1.47.52.44.95.74 1.29.92.05.02.11.05.18.08.08.03.16.04.25.04.17 0 .3-.06.41-.17l.76-.75c.25-.25.49-.44.72-.56.23-.14.46-.21.71-.21.19 0 .39.04.61.13.22.09.45.22.7.39l3.31 2.35c.26.18.44.39.55.64.1.25.16.5.16.78z" stroke="#D3B47F" stroke-width="1.5" stroke-miterlimit="10"/><path d="M17.5 8c0-.6-.47-1.52-1.17-2.27-.64-.69-1.49-1.23-2.33-1.23M21 8c0-3.87-3.13-7-7-7" stroke="#D3B47F" stroke-width="1.5" stroke-linecap="round" stroke-linejoin="round"/></svg><svg fill="none" viewBox="0 0 22 20" id="icon-info-email" xmlns="http://www.w3.org/2000/svg"><path d="M16 18.5H6c-3 0-5-1.5-5-5v-7c0-3.5 2-5 5-5h10c3 0 5 1.5 5 5v7c0 3.5-2 5-5 5z" stroke="#fff" stroke-width="1.5" stroke-miterlimit="10" stroke-linecap="round" stroke-linejoin="round"/><path d="M16 7l-3.13 2.5c-1.03.82-2.72.82-3.75 0L6 7" stroke="#fff" stroke-width="1.5" stroke-miterlimit="10" stroke-linecap="round" stroke-linejoin="round"/></svg><svg fill="none" viewBox="0 0 24 24" id="icon-map-street" xmlns="http://www.w3.org/2000/svg"><path fill-rule="evenodd" clip-rule="evenodd" d="M21.938 5.55a.75.75 0 01.523.553c.196.857.289 1.815.289 2.897v6c0 2.575-.51 4.57-1.837 5.908a.75.75 0 01-1.063.002l-6.38-6.38a.75.75 0 010-1.06l7.73-7.73a.75.75 0 01.738-.19zM15.06 14l5.26 5.261c.608-.936.929-2.297.929-4.261V9c0-.407-.014-.789-.043-1.147L15.061 14z" fill="#fff"/><path fill-rule="evenodd" clip-rule="evenodd" d="M4.155 4.155C3.24 5.071 2.75 6.574 2.75 9v6c0 1.917.308 3.263.891 4.192.508.809 1.269 1.373 2.402 1.704L20.896 6.043c-.33-1.133-.895-1.894-1.704-2.402-.93-.583-2.275-.891-4.192-.891H9c-2.426 0-3.93.49-4.845 1.405zm-1.06-1.06C4.429 1.76 6.426 1.25 9 1.25h6c2.043 0 3.717.322 4.99 1.121 1.304.818 2.091 2.076 2.471 3.731a.75.75 0 01-.2.698L6.8 22.26a.75.75 0 01-.699.201c-1.655-.38-2.913-1.167-3.731-2.471C1.572 18.717 1.25 17.043 1.25 15V9c0-2.574.51-4.57 1.845-5.905z" fill="#fff"/><path fill-rule="evenodd" clip-rule="evenodd" d="M13.47 13.47a.75.75 0 011.06 0l6.38 6.38a.75.75 0 01-.002 1.063C19.569 22.239 17.575 22.75 15 22.75H9c-1.082 0-2.04-.093-2.897-.289A.75.75 0 015.74 21.2l7.73-7.73zm-5.617 7.737c.358.029.74.043 1.147.043h6c1.964 0 3.325-.321 4.261-.928L14 15.06l-6.147 6.146zM9.12 6.532c-.996 0-1.904.56-2.15 1.618-.302 1.302.51 2.498 1.425 3.365a1.05 1.05 0 001.447.003l.002-.003c.911-.863 1.72-2.061 1.425-3.367-.246-1.056-1.154-1.616-2.149-1.616zm0-1.5c1.544 0 3.176.906 3.61 2.778l.001.004c.484 2.132-.865 3.852-1.854 4.79a2.55 2.55 0 01-3.512.002v-.002c-.986-.933-2.353-2.656-1.856-4.794M9.12 5.032c-1.544 0-3.176.906-3.61 2.778z" fill="#fff"/><path fill-rule="evenodd" clip-rule="evenodd" d="M8.095 8.7a1 1 0 011-1h.009a1 1 0 010 2h-.01a1 1 0 01-1-1z" fill="#fff"/></svg><svg fill="none" viewBox="0 0 83 58" id="icon-quote" xmlns="http://www.w3.org/2000/svg"><path d="M20.134 58c-3.425 0-6.506-.606-9.245-1.819-2.603-1.347-4.657-3.166-6.164-5.456-1.37-2.021-2.534-4.581-3.492-7.68C.41 39.812 0 36.376 0 32.74c0-6.737 1.712-13.001 5.136-18.795C8.697 8.016 14.176 3.368 21.572 0l1.849 3.638c-3.698 1.616-6.985 4.041-9.862 7.275-2.876 3.099-4.725 6.4-5.547 9.902-.958 3.368-1.095 6.602-.41 9.7 3.287-3.637 7.806-5.456 13.559-5.456 5.067 0 9.176 1.415 12.327 4.244 3.15 2.83 4.725 6.871 4.725 12.126 0 4.984-1.712 9.026-5.136 12.125C29.79 56.518 25.475 58 20.134 58zm44.787 0c-3.424 0-6.506-.606-9.245-1.819-2.603-1.347-4.657-3.166-6.164-5.456-1.37-2.021-2.533-4.581-3.492-7.68-.822-3.233-1.233-6.669-1.233-10.306 0-6.737 1.712-13.001 5.136-18.795C53.484 8.016 58.963 3.368 66.36 0l1.849 3.638c-3.698 1.616-6.985 4.041-9.861 7.275-2.877 3.099-4.726 6.4-5.547 9.902-.96 3.368-1.096 6.602-.411 9.7 3.287-3.637 7.807-5.456 13.56-5.456 5.067 0 9.176 1.415 12.326 4.244C81.425 32.133 83 36.174 83 41.43c0 4.984-1.712 9.026-5.136 12.125C74.577 56.518 70.262 58 64.92 58z" fill="#D3B47F"/></svg></svg>